<svg version="1.1" id="Layer_1" xmlns="http://www.w3.org/2000/svg" xmlns:xlink="http://www.w3.org/1999/xlink" x="0px" y="0px"
  width="100%" viewBox="300 300 400 400"  xml:space="preserve">
    <style>
        path {
            fill: #000000
        }
        @media (prefers-color-scheme: dark) {
            path {
            fill: #FFFFFF
            }
        }
    </style>
<path opacity="1.000000" stroke="none"
 d="
M519.956787,665.366455
 C467.413391,657.547791 441.992310,607.496948 448.418335,569.243225
 C449.912720,569.335632 450.271637,570.348572 450.372223,571.598450
 C451.340759,583.631287 457.791931,593.006958 465.156189,601.906738
 C479.549561,619.301270 498.741364,628.524719 520.502930,631.167053
 C538.857666,633.395691 557.315674,631.765442 574.748352,624.061096
 C582.839294,620.485291 590.640076,616.501648 597.955627,611.541687
 C603.138916,608.027466 603.145813,607.480286 600.071899,602.108582
 C590.179871,584.821960 580.359924,567.493103 570.656982,550.099792
 C568.556763,546.334961 566.287415,544.233093 561.458801,544.260315
 C523.304626,544.475647 485.148621,544.407898 446.993408,544.322388
 C443.676178,544.314941 441.466125,545.110352 439.710419,548.205688
 C432.253235,561.352844 424.574219,574.374817 416.910004,587.403564
 C414.468384,591.554260 411.664948,595.495789 409.298370,599.686279
 C402.011108,612.590027 400.885712,626.344727 403.893127,640.647400
 C405.189209,646.811340 407.236694,652.721436 409.977966,658.262207
 C407.599365,660.074707 405.990601,658.648926 404.523102,657.808594
 C392.130798,650.712280 380.086945,643.179504 369.324493,633.610474
 C362.349915,627.409302 355.736725,620.948303 349.573914,613.970459
 C347.895264,612.069763 347.697937,610.783569 349.204681,608.406555
 C360.229034,591.014465 371.089661,573.516785 381.835999,555.950867
 C395.275330,533.982971 408.645050,511.971405 421.883820,489.882202
 C440.673096,458.531677 459.307983,427.088684 478.024139,395.694305
 C486.184662,382.005829 494.386780,368.342133 502.557648,354.659760
 C503.257080,353.488525 504.019714,352.433411 505.962250,351.900726
 C509.508057,355.772827 511.828613,360.759216 514.707275,365.297852
 C534.734558,396.874603 552.365173,429.870972 571.790344,461.817871
 C588.015137,488.501251 603.019531,515.926392 618.581909,543.013000
 C630.916199,564.481262 643.206299,585.975708 655.700378,607.350708
 C657.618286,610.631836 658.097046,612.763000 655.158875,615.861450
 C642.728333,628.970093 628.873657,640.165466 613.065125,648.947327
 C588.816833,662.417542 562.850281,668.612000 535.154053,667.299683
 C530.215271,667.065674 525.313843,666.041138 519.956787,665.366455
M473.712585,504.656219
 C497.091858,504.656219 520.471130,504.656219 545.087891,504.656219
 C531.349365,479.928131 518.282898,456.409760 504.645416,431.863464
 C490.071991,456.036896 477.750458,480.142059 464.146851,503.731659
 C467.478210,505.118805 470.171204,504.454102 473.712585,504.656219
z"/>
<path opacity="1.000000" stroke="none"
 d="
M654.803711,385.218262
 C671.135010,407.598450 683.490540,431.456787 689.699646,458.285065
 C694.343445,478.349670 695.308289,498.542694 693.543030,519.062317
 C691.741577,540.003113 686.098022,559.746704 677.294922,578.680542
 C674.103638,585.544312 670.507080,592.219727 666.957947,599.253601
 C663.764709,597.049927 662.352966,593.996704 660.603699,591.297119
 C656.271179,584.610901 652.362244,577.640320 647.838318,571.091248
 C644.542542,566.320190 644.106201,562.147034 646.834167,556.792847
 C654.532532,541.683411 658.272095,525.464539 659.751465,508.554260
 C661.839233,484.690552 657.328186,462.112244 648.083130,440.258148
 C628.451721,393.852417 593.834900,364.010986 546.259399,348.908051
 C532.148987,344.428619 517.309448,342.403015 502.542053,343.558228
 C477.138275,345.545471 453.155548,352.704559 431.173035,366.032867
 C419.758301,372.953766 409.089691,380.950989 399.908844,390.472534
 C385.069885,405.862152 373.339081,423.453979 365.325043,443.519135
 C358.287262,461.139984 353.921783,479.380707 353.668335,498.163849
 C353.428741,515.920715 356.283936,533.562561 363.683075,550.024902
 C365.596619,554.282410 365.540802,557.692566 363.032593,561.677063
 C357.634552,570.252136 351.940430,578.674011 347.636017,587.898254
 C346.988800,589.285339 346.233307,590.558289 343.989990,591.094360
 C339.953583,584.877808 336.768402,578.014709 333.717407,571.098389
 C325.821838,553.199463 321.328918,534.340637 319.886230,514.950867
 C318.653137,498.377838 319.933075,481.853241 323.505585,465.444000
 C328.845978,440.914612 338.373291,418.159912 351.907379,397.244110
 C371.705353,366.647827 397.605530,342.515503 430.953156,327.049805
 C451.578491,317.484344 472.981445,311.519196 496.016266,310.373505
 C521.986755,309.081818 546.962097,312.436371 571.030518,321.792419
 C590.479248,329.352692 608.426941,339.582672 624.193604,353.639008
 C635.111023,363.372131 645.541077,373.443909 654.803711,385.218262
z"/>
</svg>