<svg version="1.1" id="Layer_1" xmlns="http://www.w3.org/2000/svg" xmlns:xlink="http://www.w3.org/1999/xlink" x="0px" y="0px"
	 width="100%" viewBox="300 300 400 455" xml:space="preserve">
<path fill="#000000" opacity="1.000000" stroke="none" 
	d="
M519.956787,665.366455 
	C467.413391,657.547791 441.992310,607.496948 448.418335,569.243225 
	C449.912720,569.335632 450.271637,570.348572 450.372223,571.598450 
	C451.340759,583.631287 457.791931,593.006958 465.156189,601.906738 
	C479.549561,619.301270 498.741364,628.524719 520.502930,631.167053 
	C538.857666,633.395691 557.315674,631.765442 574.748352,624.061096 
	C582.839294,620.485291 590.640076,616.501648 597.955627,611.541687 
	C603.138916,608.027466 603.145813,607.480286 600.071899,602.108582 
	C590.179871,584.821960 580.359924,567.493103 570.656982,550.099792 
	C568.556763,546.334961 566.287415,544.233093 561.458801,544.260315 
	C523.304626,544.475647 485.148621,544.407898 446.993408,544.322388 
	C443.676178,544.314941 441.466125,545.110352 439.710419,548.205688 
	C432.253235,561.352844 424.574219,574.374817 416.910004,587.403564 
	C414.468384,591.554260 411.664948,595.495789 409.298370,599.686279 
	C402.011108,612.590027 400.885712,626.344727 403.893127,640.647400 
	C405.189209,646.811340 407.236694,652.721436 409.977966,658.262207 
	C407.599365,660.074707 405.990601,658.648926 404.523102,657.808594 
	C392.130798,650.712280 380.086945,643.179504 369.324493,633.610474 
	C362.349915,627.409302 355.736725,620.948303 349.573914,613.970459 
	C347.895264,612.069763 347.697937,610.783569 349.204681,608.406555 
	C360.229034,591.014465 371.089661,573.516785 381.835999,555.950867 
	C395.275330,533.982971 408.645050,511.971405 421.883820,489.882202 
	C440.673096,458.531677 459.307983,427.088684 478.024139,395.694305 
	C486.184662,382.005829 494.386780,368.342133 502.557648,354.659760 
	C503.257080,353.488525 504.019714,352.433411 505.962250,351.900726 
	C509.508057,355.772827 511.828613,360.759216 514.707275,365.297852 
	C534.734558,396.874603 552.365173,429.870972 571.790344,461.817871 
	C588.015137,488.501251 603.019531,515.926392 618.581909,543.013000 
	C630.916199,564.481262 643.206299,585.975708 655.700378,607.350708 
	C657.618286,610.631836 658.097046,612.763000 655.158875,615.861450 
	C642.728333,628.970093 628.873657,640.165466 613.065125,648.947327 
	C588.816833,662.417542 562.850281,668.612000 535.154053,667.299683 
	C530.215271,667.065674 525.313843,666.041138 519.956787,665.366455 
M473.712585,504.656219 
	C497.091858,504.656219 520.471130,504.656219 545.087891,504.656219 
	C531.349365,479.928131 518.282898,456.409760 504.645416,431.863464 
	C490.071991,456.036896 477.750458,480.142059 464.146851,503.731659 
	C467.478210,505.118805 470.171204,504.454102 473.712585,504.656219 
z"/>
<path fill="#000000" opacity="1.000000" stroke="none" 
	d="
M654.803711,385.218262 
	C671.135010,407.598450 683.490540,431.456787 689.699646,458.285065 
	C694.343445,478.349670 695.308289,498.542694 693.543030,519.062317 
	C691.741577,540.003113 686.098022,559.746704 677.294922,578.680542 
	C674.103638,585.544312 670.507080,592.219727 666.957947,599.253601 
	C663.764709,597.049927 662.352966,593.996704 660.603699,591.297119 
	C656.271179,584.610901 652.362244,577.640320 647.838318,571.091248 
	C644.542542,566.320190 644.106201,562.147034 646.834167,556.792847 
	C654.532532,541.683411 658.272095,525.464539 659.751465,508.554260 
	C661.839233,484.690552 657.328186,462.112244 648.083130,440.258148 
	C628.451721,393.852417 593.834900,364.010986 546.259399,348.908051 
	C532.148987,344.428619 517.309448,342.403015 502.542053,343.558228 
	C477.138275,345.545471 453.155548,352.704559 431.173035,366.032867 
	C419.758301,372.953766 409.089691,380.950989 399.908844,390.472534 
	C385.069885,405.862152 373.339081,423.453979 365.325043,443.519135 
	C358.287262,461.139984 353.921783,479.380707 353.668335,498.163849 
	C353.428741,515.920715 356.283936,533.562561 363.683075,550.024902 
	C365.596619,554.282410 365.540802,557.692566 363.032593,561.677063 
	C357.634552,570.252136 351.940430,578.674011 347.636017,587.898254 
	C346.988800,589.285339 346.233307,590.558289 343.989990,591.094360 
	C339.953583,584.877808 336.768402,578.014709 333.717407,571.098389 
	C325.821838,553.199463 321.328918,534.340637 319.886230,514.950867 
	C318.653137,498.377838 319.933075,481.853241 323.505585,465.444000 
	C328.845978,440.914612 338.373291,418.159912 351.907379,397.244110 
	C371.705353,366.647827 397.605530,342.515503 430.953156,327.049805 
	C451.578491,317.484344 472.981445,311.519196 496.016266,310.373505 
	C521.986755,309.081818 546.962097,312.436371 571.030518,321.792419 
	C590.479248,329.352692 608.426941,339.582672 624.193604,353.639008 
	C635.111023,363.372131 645.541077,373.443909 654.803711,385.218262 
z"/>
<path fill="#000000" opacity="1.000000" stroke="none" 
	d="
M499.384460,711.360352 
	C508.593048,702.728210 522.156677,703.105591 530.738586,709.651794 
	C540.094360,716.788147 543.089294,729.885559 537.990356,740.052063 
	C531.978027,752.039734 515.803162,756.943237 504.219818,750.289795 
	C492.200470,743.385742 488.210785,727.883972 495.532471,716.338806 
	C496.588867,714.673096 497.918732,713.180847 499.384460,711.360352 
M503.836334,735.513123 
	C505.888519,739.253540 508.498993,742.673279 512.852234,743.456970 
	C518.152832,744.411255 523.252563,743.431824 526.690369,738.716003 
	C530.286560,733.782837 532.010925,728.353943 529.461182,722.351562 
	C527.105957,716.807068 519.535645,712.831665 513.988525,714.083008 
	C504.211426,716.288696 499.918671,724.766724 503.836334,735.513123 
z"/>
<path fill="#000000" opacity="1.000000" stroke="none" 
	d="
M448.855774,712.892822 
	C458.358887,703.570435 472.480804,702.606689 480.848297,710.359375 
	C482.984375,712.338501 484.017639,714.051758 481.689667,716.603455 
	C479.642426,718.847473 478.081696,719.808472 475.063690,717.514771 
	C468.712067,712.687378 460.117706,713.334167 456.084442,718.364868 
	C450.671600,725.116272 451.048737,735.785034 456.888824,741.121582 
	C460.480042,744.403259 471.262878,744.397400 474.785706,741.016724 
	C475.874329,739.971985 476.556824,738.481323 476.127686,736.959106 
	C475.683716,735.384277 474.161530,735.439209 472.810974,735.389709 
	C470.369690,735.300354 467.437073,735.851929 467.783722,731.832520 
	C468.111511,728.032043 471.053406,728.835754 473.432129,728.662109 
	C473.597656,728.649963 473.774963,728.622437 473.929657,728.664795 
	C477.703186,729.697327 483.342834,725.863037 485.106445,731.830078 
	C487.576080,740.186035 484.953003,746.188477 478.455444,749.782043 
	C468.017670,755.554810 454.712372,753.443420 447.687897,744.899475 
	C440.533447,736.197449 440.915344,722.766968 448.855774,712.892822 
z"/>
<path fill="#000000" opacity="1.000000" stroke="none" 
	d="
M576.821777,749.484985 
	C577.901245,751.127991 578.908508,752.836792 576.414368,753.100708 
	C572.761902,753.487061 568.973083,754.465942 566.605530,749.676025 
	C564.228088,744.866028 560.846924,740.552063 557.309265,735.101868 
	C555.682983,740.493530 556.309875,744.767761 556.403992,748.917480 
	C556.520813,754.068970 553.192932,753.354004 550.044556,753.314087 
	C546.012024,753.263000 546.633179,750.816162 547.215759,748.142578 
	C547.600220,746.378540 547.625610,744.513794 547.632019,742.693542 
	C547.667664,732.604492 547.877014,722.507751 547.546814,712.429382 
	C547.392029,707.702942 549.104553,706.252380 553.568237,706.591309 
	C557.543030,706.893188 561.570618,706.463928 565.552612,706.713379 
	C576.544312,707.401917 582.631348,719.130310 576.875793,728.132874 
	C574.922729,731.187683 571.433899,731.810059 568.412354,734.162781 
	C570.277222,739.567932 574.327271,743.918030 576.821777,749.484985 
M562.464478,715.344543 
	C560.517944,715.327148 557.766663,712.962036 556.846313,715.952637 
	C555.866882,719.135254 554.931030,723.350098 557.444031,725.848877 
	C559.397095,727.790894 563.115112,727.141907 565.892517,725.767944 
	C567.908508,724.770691 569.260254,723.213074 568.795349,720.610291 
	C568.226685,717.425842 566.628174,715.496277 562.464478,715.344543 
z"/>
<path fill="#000000" opacity="1.000000" stroke="none" 
	d="
M402.899231,736.031860 
	C406.494965,727.592834 409.881592,719.479736 413.378052,711.414246 
	C414.264648,709.369019 414.769806,706.795593 417.850830,706.735840 
	C420.955444,706.675659 422.114441,708.921387 423.196899,711.210632 
	C428.731506,722.915955 434.279877,734.615234 439.715393,746.366516 
	C440.598206,748.275085 441.562592,750.273926 441.410675,752.506409 
	C434.015991,754.622131 432.779907,753.952209 429.503845,747.125183 
	C428.408264,744.842102 428.534088,741.278931 425.408936,740.717896 
	C421.214233,739.964600 416.848816,739.521057 412.619751,739.824097 
	C409.774139,740.028137 409.528717,743.402405 408.724213,745.692139 
	C405.902466,753.723511 405.261322,754.142883 396.541962,752.827942 
	C396.854706,746.677795 401.207703,742.031555 402.899231,736.031860 
M415.789612,727.435486 
	C415.541229,728.978210 414.368774,730.426147 415.444122,732.477295 
	C417.515656,732.485962 419.724457,733.083191 422.072113,732.016296 
	C422.359589,728.053223 419.902466,725.358093 418.155365,721.797119 
	C417.316437,723.853210 416.706421,725.348267 415.789612,727.435486 
z"/>
<path fill="#000000" opacity="1.000000" stroke="none" 
	d="
M618.689270,738.482910 
	C620.203918,743.629333 623.353821,747.594238 625.345642,752.108215 
	C618.713989,754.940186 615.334290,753.753479 613.005127,747.903137 
	C611.976807,745.320496 611.805603,741.721252 608.851868,740.929321 
	C605.085754,739.919678 600.949890,739.508484 597.084473,739.909607 
	C594.253357,740.203369 593.616089,743.689148 592.641174,746.102417 
	C589.335022,754.286682 589.390503,754.309814 579.687683,752.759033 
	C582.221130,746.911865 584.450378,741.078613 587.228149,735.519592 
	C591.245422,727.479797 594.591736,719.181702 597.760437,710.793640 
	C598.397583,709.106934 598.871277,707.099731 601.097534,706.880615 
	C603.460938,706.648132 604.601257,708.346985 605.587036,710.182800 
	C610.453796,719.246643 614.323364,728.769958 618.689270,738.482910 
M600.696411,724.667725 
	C599.528870,726.988647 598.469421,729.343445 598.119690,732.167236 
	C600.741638,732.695007 603.070557,733.161377 605.618469,731.659119 
	C605.258423,728.934082 604.393005,726.516113 603.091248,724.237671 
	C602.469910,723.149963 601.754028,722.802917 600.696411,724.667725 
z"/>
<path fill="#000000" opacity="1.000000" stroke="none"
	d="
M628.274780,752.274048
	C627.322876,750.672852 626.193726,749.274780 627.175354,747.500000
	C633.071289,746.158569 633.594177,746.583191 632.456299,751.786255
	C631.330444,753.135132 629.498962,749.968811 628.274780,752.274048
z"/>
</svg>